<svg width="336.48mm" height="283.32mm" viewBox="0 0 336.48 283.32" xmlns="http://www.w3.org/2000/svg" version="1.1" preserveAspectRatio="xMidYMid meet"><g id="svgGroup" stroke-linecap="round" fill-rule="evenodd" font-size="9pt" stroke="#000" stroke-width="0.25mm" fill="none" style="stroke:#000;stroke-width:0.25mm;fill:none"><path d="M 7.66 283.273 L 7.66 280.82 L 12.5 280.82 L 12.5 283.273 L 12.547 283.32 L 17.613 283.32 L 17.66 283.273 L 17.66 280.82 L 22.5 280.82 L 22.5 283.273 L 22.547 283.32 L 27.613 283.32 L 27.66 283.273 L 27.66 280.82 L 32.5 280.82 L 32.5 283.273 L 32.547 283.32 L 40.113 283.32 L 40.16 283.273 L 40.16 275.707 L 40.113 275.66 L 37.66 275.66 L 37.66 270.82 L 40.113 270.82 L 40.16 270.773 L 40.16 265.707 L 40.113 265.66 L 37.66 265.66 L 37.66 260.82 L 40.113 260.82 L 40.16 260.773 L 40.16 255.707 L 40.113 255.66 L 37.66 255.66 L 37.66 250.82 L 40.113 250.82 L 40.16 250.773 L 40.16 245.707 L 40.113 245.66 L 37.66 245.66 L 37.66 240.82 L 40.113 240.82 L 40.16 240.773 L 40.16 235.707 L 40.113 235.66 L 37.66 235.66 L 37.66 230.82 L 40.113 230.82 L 40.16 230.773 L 40.16 225.707 L 40.113 225.66 L 37.66 225.66 L 37.66 220.82 L 40.113 220.82 L 40.16 220.773 L 40.16 215.707 L 40.113 215.66 L 37.66 215.66 L 37.66 210.82 L 40.113 210.82 L 40.16 210.773 L 40.16 205.707 L 40.113 205.66 L 37.66 205.66 L 37.66 200.82 L 40.113 200.82 L 40.16 200.773 L 40.16 195.707 L 40.113 195.66 L 37.66 195.66 L 37.66 190.82 L 40.113 190.82 L 40.16 190.773 L 40.16 185.707 L 40.113 185.66 L 37.66 185.66 L 37.66 180.82 L 40.113 180.82 L 40.16 180.773 L 40.16 175.707 L 40.113 175.66 L 37.66 175.66 L 37.66 170.82 L 40.113 170.82 L 40.16 170.773 L 40.16 165.707 L 40.113 165.66 L 37.66 165.66 L 37.66 160.82 L 40.113 160.82 L 40.16 160.773 L 40.16 155.707 L 40.113 155.66 L 37.66 155.66 L 37.66 150.82 L 40.113 150.82 L 40.16 150.773 L 40.16 143.207 L 40.113 143.16 L 0.047 143.16 L 0 143.207 L 0 150.773 L 0.047 150.82 L 2.5 150.82 L 2.5 155.66 L 0.047 155.66 L 0 155.707 L 0 160.773 L 0.047 160.82 L 2.5 160.82 L 2.5 165.66 L 0.047 165.66 L 0 165.707 L 0 170.773 L 0.047 170.82 L 2.5 170.82 L 2.5 175.66 L 0.047 175.66 L 0 175.707 L 0 180.773 L 0.047 180.82 L 2.5 180.82 L 2.5 185.66 L 0.047 185.66 L 0 185.707 L 0 190.773 L 0.047 190.82 L 2.5 190.82 L 2.5 195.66 L 0.047 195.66 L 0 195.707 L 0 200.773 L 0.047 200.82 L 2.5 200.82 L 2.5 205.66 L 0.047 205.66 L 0 205.707 L 0 210.773 L 0.047 210.82 L 2.5 210.82 L 2.5 215.66 L 0.047 215.66 L 0 215.707 L 0 220.773 L 0.047 220.82 L 2.5 220.82 L 2.5 225.66 L 0.047 225.66 L 0 225.707 L 0 230.773 L 0.047 230.82 L 2.5 230.82 L 2.5 235.66 L 0.047 235.66 L 0 235.707 L 0 240.773 L 0.047 240.82 L 2.5 240.82 L 2.5 245.66 L 0.047 245.66 L 0 245.707 L 0 250.773 L 0.047 250.82 L 2.5 250.82 L 2.5 255.66 L 0.047 255.66 L 0 255.707 L 0 260.773 L 0.047 260.82 L 2.5 260.82 L 2.5 265.66 L 0.047 265.66 L 0 265.707 L 0 270.773 L 0.047 270.82 L 2.5 270.82 L 2.5 275.66 L 0.047 275.66 L 0 275.707 L 0 283.273 L 0.047 283.32 L 7.613 283.32 L 7.66 283.273 Z" id="front_outsideCutPath" stroke="#FF0000" stroke-width="0.1" style="stroke:#FF0000;stroke-width:0.1" vector-effect="non-scaling-stroke"/><path d="M 55.82 283.273 L 55.82 280.82 L 60.66 280.82 L 60.66 283.273 L 60.707 283.32 L 65.773 283.32 L 65.82 283.273 L 65.82 280.82 L 70.66 280.82 L 70.66 283.273 L 70.707 283.32 L 75.773 283.32 L 75.82 283.273 L 75.82 280.82 L 80.66 280.82 L 80.66 283.273 L 80.707 283.32 L 85.773 283.32 L 85.82 283.273 L 85.82 280.82 L 90.66 280.82 L 90.66 283.273 L 90.707 283.32 L 95.773 283.32 L 95.82 283.273 L 95.82 280.82 L 100.66 280.82 L 100.66 283.273 L 100.707 283.32 L 105.773 283.32 L 105.82 283.273 L 105.82 280.82 L 110.66 280.82 L 110.66 283.273 L 110.707 283.32 L 115.773 283.32 L 115.82 283.273 L 115.82 280.82 L 120.66 280.82 L 120.66 283.273 L 120.707 283.32 L 125.773 283.32 L 125.82 283.273 L 125.82 280.82 L 130.66 280.82 L 130.66 283.273 L 130.707 283.32 L 135.773 283.32 L 135.82 283.273 L 135.82 280.82 L 140.66 280.82 L 140.66 283.273 L 140.707 283.32 L 145.773 283.32 L 145.82 283.273 L 145.82 280.82 L 150.66 280.82 L 150.66 283.273 L 150.707 283.32 L 155.773 283.32 L 155.82 283.273 L 155.82 280.82 L 160.66 280.82 L 160.66 283.273 L 160.707 283.32 L 165.773 283.32 L 165.82 283.273 L 165.82 280.82 L 170.66 280.82 L 170.66 283.273 L 170.707 283.32 L 175.773 283.32 L 175.82 283.273 L 175.82 280.82 L 180.66 280.82 L 180.66 283.273 L 180.707 283.32 L 185.773 283.32 L 185.82 283.273 L 185.82 280.82 L 190.66 280.82 L 190.66 283.273 L 190.707 283.32 L 195.773 283.32 L 195.82 283.273 L 195.82 280.82 L 200.66 280.82 L 200.66 283.273 L 200.707 283.32 L 205.773 283.32 L 205.82 283.273 L 205.82 280.82 L 210.66 280.82 L 210.66 283.273 L 210.707 283.32 L 215.773 283.32 L 215.82 283.273 L 215.82 280.82 L 220.66 280.82 L 220.66 283.273 L 220.707 283.32 L 225.773 283.32 L 225.82 283.273 L 225.82 280.82 L 230.66 280.82 L 230.66 283.273 L 230.707 283.32 L 235.773 283.32 L 235.82 283.273 L 235.82 280.82 L 240.66 280.82 L 240.66 283.273 L 240.707 283.32 L 245.773 283.32 L 245.82 283.273 L 245.82 280.82 L 250.66 280.82 L 250.66 283.273 L 250.707 283.32 L 255.773 283.32 L 255.82 283.273 L 255.82 280.82 L 260.66 280.82 L 260.66 283.273 L 260.707 283.32 L 265.773 283.32 L 265.82 283.273 L 265.82 280.82 L 270.66 280.82 L 270.66 283.273 L 270.707 283.32 L 275.773 283.32 L 275.82 283.273 L 275.82 280.82 L 280.66 280.82 L 280.66 283.273 L 280.707 283.32 L 290.773 283.32 L 290.82 283.273 L 290.82 275.82 L 293.273 275.82 L 293.32 275.773 L 293.32 270.707 L 293.273 270.66 L 290.82 270.66 L 290.82 265.82 L 293.273 265.82 L 293.32 265.773 L 293.32 260.707 L 293.273 260.66 L 290.82 260.66 L 290.82 255.82 L 293.273 255.82 L 293.32 255.773 L 293.32 250.707 L 293.273 250.66 L 290.82 250.66 L 290.82 245.82 L 293.273 245.82 L 293.32 245.773 L 293.32 240.707 L 293.273 240.66 L 290.82 240.66 L 290.82 235.82 L 293.273 235.82 L 293.32 235.773 L 293.32 230.707 L 293.273 230.66 L 290.82 230.66 L 290.82 225.82 L 293.273 225.82 L 293.32 225.773 L 293.32 220.707 L 293.273 220.66 L 290.82 220.66 L 290.82 215.82 L 293.273 215.82 L 293.32 215.773 L 293.32 210.707 L 293.273 210.66 L 290.82 210.66 L 290.82 205.82 L 293.273 205.82 L 293.32 205.773 L 293.32 200.707 L 293.273 200.66 L 290.82 200.66 L 290.82 195.82 L 293.273 195.82 L 293.32 195.773 L 293.32 190.707 L 293.273 190.66 L 290.82 190.66 L 290.82 185.82 L 293.273 185.82 L 293.32 185.773 L 293.32 180.707 L 293.273 180.66 L 290.82 180.66 L 290.82 175.82 L 293.273 175.82 L 293.32 175.773 L 293.32 170.707 L 293.273 170.66 L 290.82 170.66 L 290.82 165.82 L 293.273 165.82 L 293.32 165.773 L 293.32 160.707 L 293.273 160.66 L 290.82 160.66 L 290.82 155.82 L 293.273 155.82 L 293.32 155.773 L 293.32 150.707 L 293.273 150.66 L 290.82 150.66 L 290.82 143.207 L 290.773 143.16 L 45.707 143.16 L 45.66 143.207 L 45.66 150.66 L 43.207 150.66 L 43.16 150.707 L 43.16 155.773 L 43.207 155.82 L 45.66 155.82 L 45.66 160.66 L 43.207 160.66 L 43.16 160.707 L 43.16 165.773 L 43.207 165.82 L 45.66 165.82 L 45.66 170.66 L 43.207 170.66 L 43.16 170.707 L 43.16 175.773 L 43.207 175.82 L 45.66 175.82 L 45.66 180.66 L 43.207 180.66 L 43.16 180.707 L 43.16 185.773 L 43.207 185.82 L 45.66 185.82 L 45.66 190.66 L 43.207 190.66 L 43.16 190.707 L 43.16 195.773 L 43.207 195.82 L 45.66 195.82 L 45.66 200.66 L 43.207 200.66 L 43.16 200.707 L 43.16 205.773 L 43.207 205.82 L 45.66 205.82 L 45.66 210.66 L 43.207 210.66 L 43.16 210.707 L 43.16 215.773 L 43.207 215.82 L 45.66 215.82 L 45.66 220.66 L 43.207 220.66 L 43.16 220.707 L 43.16 225.773 L 43.207 225.82 L 45.66 225.82 L 45.66 230.66 L 43.207 230.66 L 43.16 230.707 L 43.16 235.773 L 43.207 235.82 L 45.66 235.82 L 45.66 240.66 L 43.207 240.66 L 43.16 240.707 L 43.16 245.773 L 43.207 245.82 L 45.66 245.82 L 45.66 250.66 L 43.207 250.66 L 43.16 250.707 L 43.16 255.773 L 43.207 255.82 L 45.66 255.82 L 45.66 260.66 L 43.207 260.66 L 43.16 260.707 L 43.16 265.773 L 43.207 265.82 L 45.66 265.82 L 45.66 270.66 L 43.207 270.66 L 43.16 270.707 L 43.16 275.773 L 43.207 275.82 L 45.66 275.82 L 45.66 283.273 L 45.707 283.32 L 55.773 283.32 L 55.82 283.273 Z" id="left_outsideCutPath" stroke="#FF0000" stroke-width="0.1" style="stroke:#FF0000;stroke-width:0.1" vector-effect="non-scaling-stroke"/><path d="M 7.66 140.113 L 7.66 137.66 L 12.5 137.66 L 12.5 140.113 L 12.547 140.16 L 17.613 140.16 L 17.66 140.113 L 17.66 137.66 L 22.5 137.66 L 22.5 140.113 L 22.547 140.16 L 27.613 140.16 L 27.66 140.113 L 27.66 137.66 L 32.5 137.66 L 32.5 140.113 L 32.547 140.16 L 40.113 140.16 L 40.16 140.113 L 40.16 132.547 L 40.113 132.5 L 37.66 132.5 L 37.66 127.66 L 40.113 127.66 L 40.16 127.613 L 40.16 122.547 L 40.113 122.5 L 37.66 122.5 L 37.66 117.66 L 40.113 117.66 L 40.16 117.613 L 40.16 112.547 L 40.113 112.5 L 37.66 112.5 L 37.66 107.66 L 40.113 107.66 L 40.16 107.613 L 40.16 102.547 L 40.113 102.5 L 37.66 102.5 L 37.66 97.66 L 40.113 97.66 L 40.16 97.613 L 40.16 92.547 L 40.113 92.5 L 37.66 92.5 L 37.66 87.66 L 40.113 87.66 L 40.16 87.613 L 40.16 82.547 L 40.113 82.5 L 37.66 82.5 L 37.66 77.66 L 40.113 77.66 L 40.16 77.613 L 40.16 72.547 L 40.113 72.5 L 37.66 72.5 L 37.66 67.66 L 40.113 67.66 L 40.16 67.613 L 40.16 62.547 L 40.113 62.5 L 37.66 62.5 L 37.66 57.66 L 40.113 57.66 L 40.16 57.613 L 40.16 52.547 L 40.113 52.5 L 37.66 52.5 L 37.66 47.66 L 40.113 47.66 L 40.16 47.613 L 40.16 42.547 L 40.113 42.5 L 37.66 42.5 L 37.66 37.66 L 40.113 37.66 L 40.16 37.613 L 40.16 32.547 L 40.113 32.5 L 37.66 32.5 L 37.66 27.66 L 40.113 27.66 L 40.16 27.613 L 40.16 22.547 L 40.113 22.5 L 37.66 22.5 L 37.66 17.66 L 40.113 17.66 L 40.16 17.613 L 40.16 12.547 L 40.113 12.5 L 37.66 12.5 L 37.66 7.66 L 40.113 7.66 L 40.16 7.613 L 40.16 0.047 L 40.113 0 L 0.047 0 L 0 0.047 L 0 7.613 L 0.047 7.66 L 2.5 7.66 L 2.5 12.5 L 0.047 12.5 L 0 12.547 L 0 17.613 L 0.047 17.66 L 2.5 17.66 L 2.5 22.5 L 0.047 22.5 L 0 22.547 L 0 27.613 L 0.047 27.66 L 2.5 27.66 L 2.5 32.5 L 0.047 32.5 L 0 32.547 L 0 37.613 L 0.047 37.66 L 2.5 37.66 L 2.5 42.5 L 0.047 42.5 L 0 42.547 L 0 47.613 L 0.047 47.66 L 2.5 47.66 L 2.5 52.5 L 0.047 52.5 L 0 52.547 L 0 57.613 L 0.047 57.66 L 2.5 57.66 L 2.5 62.5 L 0.047 62.5 L 0 62.547 L 0 67.613 L 0.047 67.66 L 2.5 67.66 L 2.5 72.5 L 0.047 72.5 L 0 72.547 L 0 77.613 L 0.047 77.66 L 2.5 77.66 L 2.5 82.5 L 0.047 82.5 L 0 82.547 L 0 87.613 L 0.047 87.66 L 2.5 87.66 L 2.5 92.5 L 0.047 92.5 L 0 92.547 L 0 97.613 L 0.047 97.66 L 2.5 97.66 L 2.5 102.5 L 0.047 102.5 L 0 102.547 L 0 107.613 L 0.047 107.66 L 2.5 107.66 L 2.5 112.5 L 0.047 112.5 L 0 112.547 L 0 117.613 L 0.047 117.66 L 2.5 117.66 L 2.5 122.5 L 0.047 122.5 L 0 122.547 L 0 127.613 L 0.047 127.66 L 2.5 127.66 L 2.5 132.5 L 0.047 132.5 L 0 132.547 L 0 140.113 L 0.047 140.16 L 7.613 140.16 L 7.66 140.113 Z" id="back_outsideCutPath" stroke="#FF0000" stroke-width="0.1" style="stroke:#FF0000;stroke-width:0.1" vector-effect="non-scaling-stroke"/><path d="M 55.82 140.113 L 55.82 137.66 L 60.66 137.66 L 60.66 140.113 L 60.707 140.16 L 65.773 140.16 L 65.82 140.113 L 65.82 137.66 L 70.66 137.66 L 70.66 140.113 L 70.707 140.16 L 75.773 140.16 L 75.82 140.113 L 75.82 137.66 L 80.66 137.66 L 80.66 140.113 L 80.707 140.16 L 85.773 140.16 L 85.82 140.113 L 85.82 137.66 L 90.66 137.66 L 90.66 140.113 L 90.707 140.16 L 95.773 140.16 L 95.82 140.113 L 95.82 137.66 L 100.66 137.66 L 100.66 140.113 L 100.707 140.16 L 105.773 140.16 L 105.82 140.113 L 105.82 137.66 L 110.66 137.66 L 110.66 140.113 L 110.707 140.16 L 115.773 140.16 L 115.82 140.113 L 115.82 137.66 L 120.66 137.66 L 120.66 140.113 L 120.707 140.16 L 125.773 140.16 L 125.82 140.113 L 125.82 137.66 L 130.66 137.66 L 130.66 140.113 L 130.707 140.16 L 135.773 140.16 L 135.82 140.113 L 135.82 137.66 L 140.66 137.66 L 140.66 140.113 L 140.707 140.16 L 145.773 140.16 L 145.82 140.113 L 145.82 137.66 L 150.66 137.66 L 150.66 140.113 L 150.707 140.16 L 155.773 140.16 L 155.82 140.113 L 155.82 137.66 L 160.66 137.66 L 160.66 140.113 L 160.707 140.16 L 165.773 140.16 L 165.82 140.113 L 165.82 137.66 L 170.66 137.66 L 170.66 140.113 L 170.707 140.16 L 175.773 140.16 L 175.82 140.113 L 175.82 137.66 L 180.66 137.66 L 180.66 140.113 L 180.707 140.16 L 185.773 140.16 L 185.82 140.113 L 185.82 137.66 L 190.66 137.66 L 190.66 140.113 L 190.707 140.16 L 195.773 140.16 L 195.82 140.113 L 195.82 137.66 L 200.66 137.66 L 200.66 140.113 L 200.707 140.16 L 205.773 140.16 L 205.82 140.113 L 205.82 137.66 L 210.66 137.66 L 210.66 140.113 L 210.707 140.16 L 215.773 140.16 L 215.82 140.113 L 215.82 137.66 L 220.66 137.66 L 220.66 140.113 L 220.707 140.16 L 225.773 140.16 L 225.82 140.113 L 225.82 137.66 L 230.66 137.66 L 230.66 140.113 L 230.707 140.16 L 235.773 140.16 L 235.82 140.113 L 235.82 137.66 L 240.66 137.66 L 240.66 140.113 L 240.707 140.16 L 245.773 140.16 L 245.82 140.113 L 245.82 137.66 L 250.66 137.66 L 250.66 140.113 L 250.707 140.16 L 255.773 140.16 L 255.82 140.113 L 255.82 137.66 L 260.66 137.66 L 260.66 140.113 L 260.707 140.16 L 265.773 140.16 L 265.82 140.113 L 265.82 137.66 L 270.66 137.66 L 270.66 140.113 L 270.707 140.16 L 275.773 140.16 L 275.82 140.113 L 275.82 137.66 L 280.66 137.66 L 280.66 140.113 L 280.707 140.16 L 290.773 140.16 L 290.82 140.113 L 290.82 132.66 L 293.273 132.66 L 293.32 132.613 L 293.32 127.547 L 293.273 127.5 L 290.82 127.5 L 290.82 122.66 L 293.273 122.66 L 293.32 122.613 L 293.32 117.547 L 293.273 117.5 L 290.82 117.5 L 290.82 112.66 L 293.273 112.66 L 293.32 112.613 L 293.32 107.547 L 293.273 107.5 L 290.82 107.5 L 290.82 102.66 L 293.273 102.66 L 293.32 102.613 L 293.32 97.547 L 293.273 97.5 L 290.82 97.5 L 290.82 92.66 L 293.273 92.66 L 293.32 92.613 L 293.32 87.547 L 293.273 87.5 L 290.82 87.5 L 290.82 82.66 L 293.273 82.66 L 293.32 82.613 L 293.32 77.547 L 293.273 77.5 L 290.82 77.5 L 290.82 72.66 L 293.273 72.66 L 293.32 72.613 L 293.32 67.547 L 293.273 67.5 L 290.82 67.5 L 290.82 62.66 L 293.273 62.66 L 293.32 62.613 L 293.32 57.547 L 293.273 57.5 L 290.82 57.5 L 290.82 52.66 L 293.273 52.66 L 293.32 52.613 L 293.32 47.547 L 293.273 47.5 L 290.82 47.5 L 290.82 42.66 L 293.273 42.66 L 293.32 42.613 L 293.32 37.547 L 293.273 37.5 L 290.82 37.5 L 290.82 32.66 L 293.273 32.66 L 293.32 32.613 L 293.32 27.547 L 293.273 27.5 L 290.82 27.5 L 290.82 22.66 L 293.273 22.66 L 293.32 22.613 L 293.32 17.547 L 293.273 17.5 L 290.82 17.5 L 290.82 12.66 L 293.273 12.66 L 293.32 12.613 L 293.32 7.547 L 293.273 7.5 L 290.82 7.5 L 290.82 0.047 L 290.773 0 L 45.707 0 L 45.66 0.047 L 45.66 7.5 L 43.207 7.5 L 43.16 7.547 L 43.16 12.613 L 43.207 12.66 L 45.66 12.66 L 45.66 17.5 L 43.207 17.5 L 43.16 17.547 L 43.16 22.613 L 43.207 22.66 L 45.66 22.66 L 45.66 27.5 L 43.207 27.5 L 43.16 27.547 L 43.16 32.613 L 43.207 32.66 L 45.66 32.66 L 45.66 37.5 L 43.207 37.5 L 43.16 37.547 L 43.16 42.613 L 43.207 42.66 L 45.66 42.66 L 45.66 47.5 L 43.207 47.5 L 43.16 47.547 L 43.16 52.613 L 43.207 52.66 L 45.66 52.66 L 45.66 57.5 L 43.207 57.5 L 43.16 57.547 L 43.16 62.613 L 43.207 62.66 L 45.66 62.66 L 45.66 67.5 L 43.207 67.5 L 43.16 67.547 L 43.16 72.613 L 43.207 72.66 L 45.66 72.66 L 45.66 77.5 L 43.207 77.5 L 43.16 77.547 L 43.16 82.613 L 43.207 82.66 L 45.66 82.66 L 45.66 87.5 L 43.207 87.5 L 43.16 87.547 L 43.16 92.613 L 43.207 92.66 L 45.66 92.66 L 45.66 97.5 L 43.207 97.5 L 43.16 97.547 L 43.16 102.613 L 43.207 102.66 L 45.66 102.66 L 45.66 107.5 L 43.207 107.5 L 43.16 107.547 L 43.16 112.613 L 43.207 112.66 L 45.66 112.66 L 45.66 117.5 L 43.207 117.5 L 43.16 117.547 L 43.16 122.613 L 43.207 122.66 L 45.66 122.66 L 45.66 127.5 L 43.207 127.5 L 43.16 127.547 L 43.16 132.613 L 43.207 132.66 L 45.66 132.66 L 45.66 140.113 L 45.707 140.16 L 55.773 140.16 L 55.82 140.113 Z" id="right_outsideCutPath" stroke="#FF0000" stroke-width="0.1" style="stroke:#FF0000;stroke-width:0.1" vector-effect="non-scaling-stroke"/><path d="M 308.98 283.273 L 308.98 280.82 L 313.82 280.82 L 313.82 283.273 L 313.867 283.32 L 318.933 283.32 L 318.98 283.273 L 318.98 280.82 L 323.82 280.82 L 323.82 283.273 L 323.867 283.32 L 328.933 283.32 L 328.98 283.273 L 328.98 280.82 L 333.933 280.82 L 333.98 280.773 L 333.98 270.82 L 336.433 270.82 L 336.48 270.773 L 336.48 265.707 L 336.433 265.66 L 333.98 265.66 L 333.98 260.82 L 336.433 260.82 L 336.48 260.773 L 336.48 255.707 L 336.433 255.66 L 333.98 255.66 L 333.98 250.82 L 336.433 250.82 L 336.48 250.773 L 336.48 245.707 L 336.433 245.66 L 333.98 245.66 L 333.98 240.82 L 336.433 240.82 L 336.48 240.773 L 336.48 235.707 L 336.433 235.66 L 333.98 235.66 L 333.98 230.82 L 336.433 230.82 L 336.48 230.773 L 336.48 225.707 L 336.433 225.66 L 333.98 225.66 L 333.98 220.82 L 336.433 220.82 L 336.48 220.773 L 336.48 215.707 L 336.433 215.66 L 333.98 215.66 L 333.98 210.82 L 336.433 210.82 L 336.48 210.773 L 336.48 205.707 L 336.433 205.66 L 333.98 205.66 L 333.98 200.82 L 336.433 200.82 L 336.48 200.773 L 336.48 195.707 L 336.433 195.66 L 333.98 195.66 L 333.98 190.82 L 336.433 190.82 L 336.48 190.773 L 336.48 185.707 L 336.433 185.66 L 333.98 185.66 L 333.98 180.82 L 336.433 180.82 L 336.48 180.773 L 336.48 175.707 L 336.433 175.66 L 333.98 175.66 L 333.98 170.82 L 336.433 170.82 L 336.48 170.773 L 336.48 165.707 L 336.433 165.66 L 333.98 165.66 L 333.98 160.82 L 336.433 160.82 L 336.48 160.773 L 336.48 155.707 L 336.433 155.66 L 333.98 155.66 L 333.98 150.82 L 336.433 150.82 L 336.48 150.773 L 336.48 145.707 L 336.433 145.66 L 333.98 145.66 L 333.98 140.82 L 336.433 140.82 L 336.48 140.773 L 336.48 135.707 L 336.433 135.66 L 333.98 135.66 L 333.98 130.82 L 336.433 130.82 L 336.48 130.773 L 336.48 125.707 L 336.433 125.66 L 333.98 125.66 L 333.98 120.82 L 336.433 120.82 L 336.48 120.773 L 336.48 115.707 L 336.433 115.66 L 333.98 115.66 L 333.98 110.82 L 336.433 110.82 L 336.48 110.773 L 336.48 105.707 L 336.433 105.66 L 333.98 105.66 L 333.98 100.82 L 336.433 100.82 L 336.48 100.773 L 336.48 95.707 L 336.433 95.66 L 333.98 95.66 L 333.98 90.82 L 336.433 90.82 L 336.48 90.773 L 336.48 85.707 L 336.433 85.66 L 333.98 85.66 L 333.98 80.82 L 336.433 80.82 L 336.48 80.773 L 336.48 75.707 L 336.433 75.66 L 333.98 75.66 L 333.98 70.82 L 336.433 70.82 L 336.48 70.773 L 336.48 65.707 L 336.433 65.66 L 333.98 65.66 L 333.98 60.82 L 336.433 60.82 L 336.48 60.773 L 336.48 55.707 L 336.433 55.66 L 333.98 55.66 L 333.98 50.82 L 336.433 50.82 L 336.48 50.773 L 336.48 45.707 L 336.433 45.66 L 333.98 45.66 L 333.98 35.707 L 333.933 35.66 L 328.98 35.66 L 328.98 33.207 L 328.933 33.16 L 323.867 33.16 L 323.82 33.207 L 323.82 35.66 L 318.98 35.66 L 318.98 33.207 L 318.933 33.16 L 313.867 33.16 L 313.82 33.207 L 313.82 35.66 L 308.98 35.66 L 308.98 33.207 L 308.933 33.16 L 303.867 33.16 L 303.82 33.207 L 303.82 35.66 L 298.867 35.66 L 298.82 35.707 L 298.82 45.66 L 296.367 45.66 L 296.32 45.707 L 296.32 50.773 L 296.367 50.82 L 298.82 50.82 L 298.82 55.66 L 296.367 55.66 L 296.32 55.707 L 296.32 60.773 L 296.367 60.82 L 298.82 60.82 L 298.82 65.66 L 296.367 65.66 L 296.32 65.707 L 296.32 70.773 L 296.367 70.82 L 298.82 70.82 L 298.82 75.66 L 296.367 75.66 L 296.32 75.707 L 296.32 80.773 L 296.367 80.82 L 298.82 80.82 L 298.82 85.66 L 296.367 85.66 L 296.32 85.707 L 296.32 90.773 L 296.367 90.82 L 298.82 90.82 L 298.82 95.66 L 296.367 95.66 L 296.32 95.707 L 296.32 100.773 L 296.367 100.82 L 298.82 100.82 L 298.82 105.66 L 296.367 105.66 L 296.32 105.707 L 296.32 110.773 L 296.367 110.82 L 298.82 110.82 L 298.82 115.66 L 296.367 115.66 L 296.32 115.707 L 296.32 120.773 L 296.367 120.82 L 298.82 120.82 L 298.82 125.66 L 296.367 125.66 L 296.32 125.707 L 296.32 130.773 L 296.367 130.82 L 298.82 130.82 L 298.82 135.66 L 296.367 135.66 L 296.32 135.707 L 296.32 140.773 L 296.367 140.82 L 298.82 140.82 L 298.82 145.66 L 296.367 145.66 L 296.32 145.707 L 296.32 150.773 L 296.367 150.82 L 298.82 150.82 L 298.82 155.66 L 296.367 155.66 L 296.32 155.707 L 296.32 160.773 L 296.367 160.82 L 298.82 160.82 L 298.82 165.66 L 296.367 165.66 L 296.32 165.707 L 296.32 170.773 L 296.367 170.82 L 298.82 170.82 L 298.82 175.66 L 296.367 175.66 L 296.32 175.707 L 296.32 180.773 L 296.367 180.82 L 298.82 180.82 L 298.82 185.66 L 296.367 185.66 L 296.32 185.707 L 296.32 190.773 L 296.367 190.82 L 298.82 190.82 L 298.82 195.66 L 296.367 195.66 L 296.32 195.707 L 296.32 200.773 L 296.367 200.82 L 298.82 200.82 L 298.82 205.66 L 296.367 205.66 L 296.32 205.707 L 296.32 210.773 L 296.367 210.82 L 298.82 210.82 L 298.82 215.66 L 296.367 215.66 L 296.32 215.707 L 296.32 220.773 L 296.367 220.82 L 298.82 220.82 L 298.82 225.66 L 296.367 225.66 L 296.32 225.707 L 296.32 230.773 L 296.367 230.82 L 298.82 230.82 L 298.82 235.66 L 296.367 235.66 L 296.32 235.707 L 296.32 240.773 L 296.367 240.82 L 298.82 240.82 L 298.82 245.66 L 296.367 245.66 L 296.32 245.707 L 296.32 250.773 L 296.367 250.82 L 298.82 250.82 L 298.82 255.66 L 296.367 255.66 L 296.32 255.707 L 296.32 260.773 L 296.367 260.82 L 298.82 260.82 L 298.82 265.66 L 296.367 265.66 L 296.32 265.707 L 296.32 270.773 L 296.367 270.82 L 298.82 270.82 L 298.82 280.773 L 298.867 280.82 L 303.82 280.82 L 303.82 283.273 L 303.867 283.32 L 308.933 283.32 L 308.98 283.273 Z" id="bottom_outsideCutPath" stroke="#FF0000" stroke-width="0.1" style="stroke:#FF0000;stroke-width:0.1" vector-effect="non-scaling-stroke"/></g></svg>