<svg width="340.8mm" height="286.2mm" viewBox="0 0 340.8 286.2" xmlns="http://www.w3.org/2000/svg" version="1.1" preserveAspectRatio="xMidYMid meet"><g id="svgGroup" stroke-linecap="round" fill-rule="evenodd" font-size="9pt" stroke="#000" stroke-width="0.25mm" fill="none" style="stroke:#000;stroke-width:0.25mm;fill:none"><path d="M 9.1 285.731 L 9.1 283.7 L 12.5 283.7 L 12.5 285.731 L 12.969 286.2 L 18.631 286.2 L 19.1 285.731 L 19.1 283.7 L 22.5 283.7 L 22.5 285.731 L 22.969 286.2 L 28.631 286.2 L 29.1 285.731 L 29.1 283.7 L 32.5 283.7 L 32.5 285.731 L 32.969 286.2 L 41.131 286.2 L 41.6 285.731 L 41.6 277.569 L 41.131 277.1 L 39.1 277.1 L 39.1 273.7 L 41.131 273.7 L 41.6 273.231 L 41.6 267.569 L 41.131 267.1 L 39.1 267.1 L 39.1 263.7 L 41.131 263.7 L 41.6 263.231 L 41.6 257.569 L 41.131 257.1 L 39.1 257.1 L 39.1 253.7 L 41.131 253.7 L 41.6 253.231 L 41.6 247.569 L 41.131 247.1 L 39.1 247.1 L 39.1 243.7 L 41.131 243.7 L 41.6 243.231 L 41.6 237.569 L 41.131 237.1 L 39.1 237.1 L 39.1 233.7 L 41.131 233.7 L 41.6 233.231 L 41.6 227.569 L 41.131 227.1 L 39.1 227.1 L 39.1 223.7 L 41.131 223.7 L 41.6 223.231 L 41.6 217.569 L 41.131 217.1 L 39.1 217.1 L 39.1 213.7 L 41.131 213.7 L 41.6 213.231 L 41.6 207.569 L 41.131 207.1 L 39.1 207.1 L 39.1 203.7 L 41.131 203.7 L 41.6 203.231 L 41.6 197.569 L 41.131 197.1 L 39.1 197.1 L 39.1 193.7 L 41.131 193.7 L 41.6 193.231 L 41.6 187.569 L 41.131 187.1 L 39.1 187.1 L 39.1 183.7 L 41.131 183.7 L 41.6 183.231 L 41.6 177.569 L 41.131 177.1 L 39.1 177.1 L 39.1 173.7 L 41.131 173.7 L 41.6 173.231 L 41.6 167.569 L 41.131 167.1 L 39.1 167.1 L 39.1 163.7 L 41.131 163.7 L 41.6 163.231 L 41.6 157.569 L 41.131 157.1 L 39.1 157.1 L 39.1 153.7 L 41.131 153.7 L 41.6 153.231 L 41.6 145.069 L 41.131 144.6 L 0.469 144.6 L 0 145.069 L 0 153.231 L 0.469 153.7 L 2.5 153.7 L 2.5 157.1 L 0.469 157.1 L 0 157.569 L 0 163.231 L 0.469 163.7 L 2.5 163.7 L 2.5 167.1 L 0.469 167.1 L 0 167.569 L 0 173.231 L 0.469 173.7 L 2.5 173.7 L 2.5 177.1 L 0.469 177.1 L 0 177.569 L 0 183.231 L 0.469 183.7 L 2.5 183.7 L 2.5 187.1 L 0.469 187.1 L 0 187.569 L 0 193.231 L 0.469 193.7 L 2.5 193.7 L 2.5 197.1 L 0.469 197.1 L 0 197.569 L 0 203.231 L 0.469 203.7 L 2.5 203.7 L 2.5 207.1 L 0.469 207.1 L 0 207.569 L 0 213.231 L 0.469 213.7 L 2.5 213.7 L 2.5 217.1 L 0.469 217.1 L 0 217.569 L 0 223.231 L 0.469 223.7 L 2.5 223.7 L 2.5 227.1 L 0.469 227.1 L 0 227.569 L 0 233.231 L 0.469 233.7 L 2.5 233.7 L 2.5 237.1 L 0.469 237.1 L 0 237.569 L 0 243.231 L 0.469 243.7 L 2.5 243.7 L 2.5 247.1 L 0.469 247.1 L 0 247.569 L 0 253.231 L 0.469 253.7 L 2.5 253.7 L 2.5 257.1 L 0.469 257.1 L 0 257.569 L 0 263.231 L 0.469 263.7 L 2.5 263.7 L 2.5 267.1 L 0.469 267.1 L 0 267.569 L 0 273.231 L 0.469 273.7 L 2.5 273.7 L 2.5 277.1 L 0.469 277.1 L 0 277.569 L 0 285.731 L 0.469 286.2 L 8.631 286.2 L 9.1 285.731 Z" id="front_outsideCutPath" stroke="#FF0000" stroke-width="0.1" style="stroke:#FF0000;stroke-width:0.1" vector-effect="non-scaling-stroke"/><path d="M 26.863 218.542 L 26.189 218.542 L 26.189 215.662 A 1.906 1.906 0 0 0 26.167 215.363 Q 26.142 215.206 26.088 215.08 A 0.802 0.802 0 0 0 25.941 214.849 A 0.76 0.76 0 0 0 25.629 214.65 Q 25.507 214.607 25.356 214.591 A 1.788 1.788 0 0 0 25.165 214.581 Q 24.705 214.581 24.407 214.745 A 0.951 0.951 0 0 0 24.141 214.959 A 1.102 1.102 0 0 0 23.95 215.294 Q 23.834 215.602 23.819 216.06 A 4.32 4.32 0 0 0 23.816 216.206 L 23.816 218.542 L 23.142 218.542 L 23.142 214.09 L 23.69 214.09 L 23.8 214.699 L 23.833 214.699 A 1.366 1.366 0 0 1 24.368 214.212 A 1.642 1.642 0 0 1 24.414 214.189 Q 24.787 214.009 25.246 214.009 Q 26.051 214.009 26.457 214.396 A 1.169 1.169 0 0 1 26.742 214.844 Q 26.81 215.028 26.84 215.256 A 2.943 2.943 0 0 1 26.863 215.638 L 26.863 218.542 Z M 13.908 214.09 L 13.908 214.614 L 12.775 214.614 L 12.775 218.542 L 12.1 218.542 L 12.1 214.614 L 11.304 214.614 L 11.304 214.309 L 12.1 214.065 L 12.1 213.818 A 2.733 2.733 0 0 1 12.164 213.198 Q 12.403 212.176 13.534 212.176 A 2.172 2.172 0 0 1 13.842 212.2 Q 14.081 212.234 14.363 212.319 L 14.188 212.859 A 3.275 3.275 0 0 0 13.934 212.787 Q 13.805 212.757 13.692 212.743 A 1.45 1.45 0 0 0 13.522 212.733 A 0.909 0.909 0 0 0 13.303 212.758 A 0.584 0.584 0 0 0 12.957 212.987 Q 12.792 213.217 12.776 213.7 A 3.184 3.184 0 0 0 12.775 213.801 L 12.775 214.09 L 13.908 214.09 Z M 30.296 217.986 L 30.296 218.502 A 0.663 0.663 0 0 1 30.217 218.533 Q 30.12 218.565 29.973 218.589 Q 29.774 218.621 29.612 218.623 A 1.727 1.727 0 0 1 29.589 218.624 A 1.761 1.761 0 0 1 29.07 218.554 Q 28.5 218.378 28.35 217.758 A 2.12 2.12 0 0 1 28.297 217.263 L 28.297 214.614 L 27.66 214.614 L 27.66 214.289 L 28.297 214.009 L 28.582 213.058 L 28.972 213.058 L 28.972 214.09 L 30.264 214.09 L 30.264 214.614 L 28.972 214.614 L 28.972 217.234 A 1.358 1.358 0 0 0 28.991 217.473 Q 29.015 217.603 29.066 217.707 A 0.654 0.654 0 0 0 29.163 217.852 A 0.626 0.626 0 0 0 29.548 218.057 A 0.901 0.901 0 0 0 29.687 218.067 Q 29.865 218.067 30.032 218.041 A 3.648 3.648 0 0 0 30.129 218.024 Q 30.222 218.006 30.287 217.988 A 1.018 1.018 0 0 0 30.296 217.986 Z M 17.284 214.057 L 17.19 214.683 Q 16.96 214.632 16.775 214.624 A 1.582 1.582 0 0 0 16.703 214.622 A 1.168 1.168 0 0 0 15.84 214.995 A 1.599 1.599 0 0 0 15.779 215.061 A 1.54 1.54 0 0 0 15.407 215.925 A 2.047 2.047 0 0 0 15.395 216.154 L 15.395 218.542 L 14.72 218.542 L 14.72 214.09 L 15.277 214.09 L 15.354 214.914 L 15.387 214.914 Q 15.635 214.48 15.984 214.244 Q 16.333 214.009 16.752 214.009 A 3.096 3.096 0 0 1 17.029 214.02 A 2.26 2.26 0 0 1 17.284 214.057 Z M 21.411 218.012 A 1.881 1.881 0 0 0 21.635 217.704 Q 21.96 217.149 21.96 216.312 A 3.958 3.958 0 0 0 21.958 216.205 Q 21.948 215.834 21.868 215.519 A 2.1 2.1 0 0 0 21.409 214.63 A 1.765 1.765 0 0 0 20.59 214.101 A 2.266 2.266 0 0 0 19.925 214.009 A 2.619 2.619 0 0 0 19.454 214.049 A 1.784 1.784 0 0 0 18.413 214.616 Q 18.052 215.019 17.93 215.635 A 3.502 3.502 0 0 0 17.869 216.312 A 3.374 3.374 0 0 0 17.911 216.858 A 2.495 2.495 0 0 0 18.121 217.539 A 2.217 2.217 0 0 0 18.17 217.635 A 1.826 1.826 0 0 0 18.836 218.343 A 1.878 1.878 0 0 0 19.267 218.535 A 2.166 2.166 0 0 0 19.896 218.624 A 2.619 2.619 0 0 0 20.353 218.585 A 1.798 1.798 0 0 0 21.411 218.012 Z M 18.568 216.312 A 3.415 3.415 0 0 0 18.6 216.8 Q 18.673 217.303 18.909 217.612 A 1.105 1.105 0 0 0 19.629 218.036 A 1.675 1.675 0 0 0 19.912 218.059 A 1.566 1.566 0 0 0 20.326 218.007 A 1.09 1.09 0 0 0 20.918 217.614 Q 21.261 217.169 21.261 216.312 A 3.365 3.365 0 0 0 21.229 215.832 Q 21.194 215.588 21.12 215.391 A 1.389 1.389 0 0 0 20.918 215.022 A 1.109 1.109 0 0 0 20.228 214.611 A 1.701 1.701 0 0 0 19.904 214.581 Q 19.242 214.581 18.905 215.016 A 1.394 1.394 0 0 0 18.688 215.435 Q 18.624 215.627 18.594 215.863 A 3.564 3.564 0 0 0 18.568 216.312 Z" id="front_labelLayer" stroke="#000000" fill="#000000" style="stroke:#000000;fill:#000000" vector-effect="non-scaling-stroke"/><path d="M 58.7 285.731 L 58.7 283.7 L 62.1 283.7 L 62.1 285.731 L 62.569 286.2 L 68.231 286.2 L 68.7 285.731 L 68.7 283.7 L 72.1 283.7 L 72.1 285.731 L 72.569 286.2 L 78.231 286.2 L 78.7 285.731 L 78.7 283.7 L 82.1 283.7 L 82.1 285.731 L 82.569 286.2 L 88.231 286.2 L 88.7 285.731 L 88.7 283.7 L 92.1 283.7 L 92.1 285.731 L 92.569 286.2 L 98.231 286.2 L 98.7 285.731 L 98.7 283.7 L 102.1 283.7 L 102.1 285.731 L 102.569 286.2 L 108.231 286.2 L 108.7 285.731 L 108.7 283.7 L 112.1 283.7 L 112.1 285.731 L 112.569 286.2 L 118.231 286.2 L 118.7 285.731 L 118.7 283.7 L 122.1 283.7 L 122.1 285.731 L 122.569 286.2 L 128.231 286.2 L 128.7 285.731 L 128.7 283.7 L 132.1 283.7 L 132.1 285.731 L 132.569 286.2 L 138.231 286.2 L 138.7 285.731 L 138.7 283.7 L 142.1 283.7 L 142.1 285.731 L 142.569 286.2 L 148.231 286.2 L 148.7 285.731 L 148.7 283.7 L 152.1 283.7 L 152.1 285.731 L 152.569 286.2 L 158.231 286.2 L 158.7 285.731 L 158.7 283.7 L 162.1 283.7 L 162.1 285.731 L 162.569 286.2 L 168.231 286.2 L 168.7 285.731 L 168.7 283.7 L 172.1 283.7 L 172.1 285.731 L 172.569 286.2 L 178.231 286.2 L 178.7 285.731 L 178.7 283.7 L 182.1 283.7 L 182.1 285.731 L 182.569 286.2 L 188.231 286.2 L 188.7 285.731 L 188.7 283.7 L 192.1 283.7 L 192.1 285.731 L 192.569 286.2 L 198.231 286.2 L 198.7 285.731 L 198.7 283.7 L 202.1 283.7 L 202.1 285.731 L 202.569 286.2 L 208.231 286.2 L 208.7 285.731 L 208.7 283.7 L 212.1 283.7 L 212.1 285.731 L 212.569 286.2 L 218.231 286.2 L 218.7 285.731 L 218.7 283.7 L 222.1 283.7 L 222.1 285.731 L 222.569 286.2 L 228.231 286.2 L 228.7 285.731 L 228.7 283.7 L 232.1 283.7 L 232.1 285.731 L 232.569 286.2 L 238.231 286.2 L 238.7 285.731 L 238.7 283.7 L 242.1 283.7 L 242.1 285.731 L 242.569 286.2 L 248.231 286.2 L 248.7 285.731 L 248.7 283.7 L 252.1 283.7 L 252.1 285.731 L 252.569 286.2 L 258.231 286.2 L 258.7 285.731 L 258.7 283.7 L 262.1 283.7 L 262.1 285.731 L 262.569 286.2 L 268.231 286.2 L 268.7 285.731 L 268.7 283.7 L 272.1 283.7 L 272.1 285.731 L 272.569 286.2 L 278.231 286.2 L 278.7 285.731 L 278.7 283.7 L 282.1 283.7 L 282.1 285.731 L 282.569 286.2 L 293.231 286.2 L 293.7 285.731 L 293.7 278.7 L 295.731 278.7 L 296.2 278.231 L 296.2 272.569 L 295.731 272.1 L 293.7 272.1 L 293.7 268.7 L 295.731 268.7 L 296.2 268.231 L 296.2 262.569 L 295.731 262.1 L 293.7 262.1 L 293.7 258.7 L 295.731 258.7 L 296.2 258.231 L 296.2 252.569 L 295.731 252.1 L 293.7 252.1 L 293.7 248.7 L 295.731 248.7 L 296.2 248.231 L 296.2 242.569 L 295.731 242.1 L 293.7 242.1 L 293.7 238.7 L 295.731 238.7 L 296.2 238.231 L 296.2 232.569 L 295.731 232.1 L 293.7 232.1 L 293.7 228.7 L 295.731 228.7 L 296.2 228.231 L 296.2 222.569 L 295.731 222.1 L 293.7 222.1 L 293.7 218.7 L 295.731 218.7 L 296.2 218.231 L 296.2 212.569 L 295.731 212.1 L 293.7 212.1 L 293.7 208.7 L 295.731 208.7 L 296.2 208.231 L 296.2 202.569 L 295.731 202.1 L 293.7 202.1 L 293.7 198.7 L 295.731 198.7 L 296.2 198.231 L 296.2 192.569 L 295.731 192.1 L 293.7 192.1 L 293.7 188.7 L 295.731 188.7 L 296.2 188.231 L 296.2 182.569 L 295.731 182.1 L 293.7 182.1 L 293.7 178.7 L 295.731 178.7 L 296.2 178.231 L 296.2 172.569 L 295.731 172.1 L 293.7 172.1 L 293.7 168.7 L 295.731 168.7 L 296.2 168.231 L 296.2 162.569 L 295.731 162.1 L 293.7 162.1 L 293.7 158.7 L 295.731 158.7 L 296.2 158.231 L 296.2 152.569 L 295.731 152.1 L 293.7 152.1 L 293.7 145.069 L 293.231 144.6 L 47.569 144.6 L 47.1 145.069 L 47.1 152.1 L 45.069 152.1 L 44.6 152.569 L 44.6 158.231 L 45.069 158.7 L 47.1 158.7 L 47.1 162.1 L 45.069 162.1 L 44.6 162.569 L 44.6 168.231 L 45.069 168.7 L 47.1 168.7 L 47.1 172.1 L 45.069 172.1 L 44.6 172.569 L 44.6 178.231 L 45.069 178.7 L 47.1 178.7 L 47.1 182.1 L 45.069 182.1 L 44.6 182.569 L 44.6 188.231 L 45.069 188.7 L 47.1 188.7 L 47.1 192.1 L 45.069 192.1 L 44.6 192.569 L 44.6 198.231 L 45.069 198.7 L 47.1 198.7 L 47.1 202.1 L 45.069 202.1 L 44.6 202.569 L 44.6 208.231 L 45.069 208.7 L 47.1 208.7 L 47.1 212.1 L 45.069 212.1 L 44.6 212.569 L 44.6 218.231 L 45.069 218.7 L 47.1 218.7 L 47.1 222.1 L 45.069 222.1 L 44.6 222.569 L 44.6 228.231 L 45.069 228.7 L 47.1 228.7 L 47.1 232.1 L 45.069 232.1 L 44.6 232.569 L 44.6 238.231 L 45.069 238.7 L 47.1 238.7 L 47.1 242.1 L 45.069 242.1 L 44.6 242.569 L 44.6 248.231 L 45.069 248.7 L 47.1 248.7 L 47.1 252.1 L 45.069 252.1 L 44.6 252.569 L 44.6 258.231 L 45.069 258.7 L 47.1 258.7 L 47.1 262.1 L 45.069 262.1 L 44.6 262.569 L 44.6 268.231 L 45.069 268.7 L 47.1 268.7 L 47.1 272.1 L 45.069 272.1 L 44.6 272.569 L 44.6 278.231 L 45.069 278.7 L 47.1 278.7 L 47.1 285.731 L 47.569 286.2 L 58.231 286.2 L 58.7 285.731 Z" id="left_outsideCutPath" stroke="#FF0000" stroke-width="0.1" style="stroke:#FF0000;stroke-width:0.1" vector-effect="non-scaling-stroke"/><path d="M 180.474 210.94 L 180.474 212.724 L 176.616 212.724 L 176.616 226.096 L 174.32 226.096 L 174.32 212.724 L 171.61 212.724 L 171.61 211.687 L 174.32 210.857 L 174.32 210.014 A 9.303 9.303 0 0 1 174.537 207.905 Q 175.209 205.03 177.958 204.532 A 6.977 6.977 0 0 1 179.202 204.427 A 7.392 7.392 0 0 1 180.248 204.507 Q 181.062 204.624 182.023 204.911 L 181.428 206.75 A 11.147 11.147 0 0 0 180.561 206.506 Q 180.123 206.403 179.737 206.358 A 4.937 4.937 0 0 0 179.16 206.322 A 3.096 3.096 0 0 0 178.414 206.406 A 1.988 1.988 0 0 0 177.238 207.186 A 2.656 2.656 0 0 0 176.887 207.894 Q 176.654 208.585 176.621 209.613 A 10.838 10.838 0 0 0 176.616 209.958 L 176.616 210.94 L 180.474 210.94 Z M 169.729 217.481 L 169.729 218.933 L 159.289 218.933 A 9.213 9.213 0 0 0 159.45 220.475 Q 159.616 221.315 159.948 221.979 A 4.31 4.31 0 0 0 160.637 222.984 A 4.171 4.171 0 0 0 162.827 224.218 A 6.32 6.32 0 0 0 164.24 224.367 A 12.124 12.124 0 0 0 168.78 223.468 A 13.892 13.892 0 0 0 169.079 223.344 L 169.079 225.391 A 13.781 13.781 0 0 1 167.824 225.865 A 10.538 10.538 0 0 1 166.777 226.144 A 9.636 9.636 0 0 1 165.821 226.292 Q 165.35 226.342 164.818 226.361 A 18.701 18.701 0 0 1 164.157 226.372 A 8.92 8.92 0 0 1 161.924 226.108 A 6.316 6.316 0 0 1 158.854 224.326 A 6.756 6.756 0 0 1 157.238 221.358 Q 156.957 220.306 156.917 219.057 A 13.111 13.111 0 0 1 156.911 218.642 A 12.053 12.053 0 0 1 157.134 216.252 Q 157.545 214.22 158.715 212.821 A 5.882 5.882 0 0 1 163.002 210.683 A 8.115 8.115 0 0 1 163.562 210.664 A 6.993 6.993 0 0 1 165.531 210.927 A 5.321 5.321 0 0 1 168.07 212.537 A 6.418 6.418 0 0 1 169.524 215.47 A 9.343 9.343 0 0 1 169.729 217.481 Z M 190.209 224.201 L 190.209 225.957 A 2.258 2.258 0 0 1 189.941 226.064 Q 189.655 226.158 189.247 226.231 A 8.585 8.585 0 0 1 189.109 226.255 Q 188.432 226.365 187.88 226.372 A 5.883 5.883 0 0 1 187.803 226.372 Q 183.405 226.372 183.405 221.74 L 183.405 212.724 L 181.234 212.724 L 181.234 211.618 L 183.405 210.664 L 184.373 207.428 L 185.701 207.428 L 185.701 210.94 L 190.098 210.94 L 190.098 212.724 L 185.701 212.724 L 185.701 221.643 A 4.622 4.622 0 0 0 185.768 222.455 Q 185.909 223.247 186.351 223.745 A 2.132 2.132 0 0 0 187.662 224.443 A 3.068 3.068 0 0 0 188.135 224.478 A 7.539 7.539 0 0 0 189.239 224.399 A 6.953 6.953 0 0 0 189.31 224.388 Q 189.851 224.302 190.178 224.21 A 3.447 3.447 0 0 0 190.209 224.201 Z M 152.887 204.579 L 152.887 226.096 L 150.591 226.096 L 150.591 204.579 L 152.887 204.579 Z M 159.344 217.066 L 167.268 217.066 Q 167.268 214.895 166.3 213.74 A 3.145 3.145 0 0 0 164.406 212.662 A 4.718 4.718 0 0 0 163.534 212.586 Q 161.709 212.586 160.624 213.775 Q 159.641 214.851 159.389 216.674 A 8.672 8.672 0 0 0 159.344 217.066 Z" id="left_labelLayer" stroke="#000000" fill="#000000" style="stroke:#000000;fill:#000000" vector-effect="non-scaling-stroke"/><path d="M 9.1 141.131 L 9.1 139.1 L 12.5 139.1 L 12.5 141.131 L 12.969 141.6 L 18.631 141.6 L 19.1 141.131 L 19.1 139.1 L 22.5 139.1 L 22.5 141.131 L 22.969 141.6 L 28.631 141.6 L 29.1 141.131 L 29.1 139.1 L 32.5 139.1 L 32.5 141.131 L 32.969 141.6 L 41.131 141.6 L 41.6 141.131 L 41.6 132.969 L 41.131 132.5 L 39.1 132.5 L 39.1 129.1 L 41.131 129.1 L 41.6 128.631 L 41.6 122.969 L 41.131 122.5 L 39.1 122.5 L 39.1 119.1 L 41.131 119.1 L 41.6 118.631 L 41.6 112.969 L 41.131 112.5 L 39.1 112.5 L 39.1 109.1 L 41.131 109.1 L 41.6 108.631 L 41.6 102.969 L 41.131 102.5 L 39.1 102.5 L 39.1 99.1 L 41.131 99.1 L 41.6 98.631 L 41.6 92.969 L 41.131 92.5 L 39.1 92.5 L 39.1 89.1 L 41.131 89.1 L 41.6 88.631 L 41.6 82.969 L 41.131 82.5 L 39.1 82.5 L 39.1 79.1 L 41.131 79.1 L 41.6 78.631 L 41.6 72.969 L 41.131 72.5 L 39.1 72.5 L 39.1 69.1 L 41.131 69.1 L 41.6 68.631 L 41.6 62.969 L 41.131 62.5 L 39.1 62.5 L 39.1 59.1 L 41.131 59.1 L 41.6 58.631 L 41.6 52.969 L 41.131 52.5 L 39.1 52.5 L 39.1 49.1 L 41.131 49.1 L 41.6 48.631 L 41.6 42.969 L 41.131 42.5 L 39.1 42.5 L 39.1 39.1 L 41.131 39.1 L 41.6 38.631 L 41.6 32.969 L 41.131 32.5 L 39.1 32.5 L 39.1 29.1 L 41.131 29.1 L 41.6 28.631 L 41.6 22.969 L 41.131 22.5 L 39.1 22.5 L 39.1 19.1 L 41.131 19.1 L 41.6 18.631 L 41.6 12.969 L 41.131 12.5 L 39.1 12.5 L 39.1 9.1 L 41.131 9.1 L 41.6 8.631 L 41.6 0.469 L 41.131 0 L 0.469 0 L 0 0.469 L 0 8.631 L 0.469 9.1 L 2.5 9.1 L 2.5 12.5 L 0.469 12.5 L 0 12.969 L 0 18.631 L 0.469 19.1 L 2.5 19.1 L 2.5 22.5 L 0.469 22.5 L 0 22.969 L 0 28.631 L 0.469 29.1 L 2.5 29.1 L 2.5 32.5 L 0.469 32.5 L 0 32.969 L 0 38.631 L 0.469 39.1 L 2.5 39.1 L 2.5 42.5 L 0.469 42.5 L 0 42.969 L 0 48.631 L 0.469 49.1 L 2.5 49.1 L 2.5 52.5 L 0.469 52.5 L 0 52.969 L 0 58.631 L 0.469 59.1 L 2.5 59.1 L 2.5 62.5 L 0.469 62.5 L 0 62.969 L 0 68.631 L 0.469 69.1 L 2.5 69.1 L 2.5 72.5 L 0.469 72.5 L 0 72.969 L 0 78.631 L 0.469 79.1 L 2.5 79.1 L 2.5 82.5 L 0.469 82.5 L 0 82.969 L 0 88.631 L 0.469 89.1 L 2.5 89.1 L 2.5 92.5 L 0.469 92.5 L 0 92.969 L 0 98.631 L 0.469 99.1 L 2.5 99.1 L 2.5 102.5 L 0.469 102.5 L 0 102.969 L 0 108.631 L 0.469 109.1 L 2.5 109.1 L 2.5 112.5 L 0.469 112.5 L 0 112.969 L 0 118.631 L 0.469 119.1 L 2.5 119.1 L 2.5 122.5 L 0.469 122.5 L 0 122.969 L 0 128.631 L 0.469 129.1 L 2.5 129.1 L 2.5 132.5 L 0.469 132.5 L 0 132.969 L 0 141.131 L 0.469 141.6 L 8.631 141.6 L 9.1 141.131 Z" id="back_outsideCutPath" stroke="#FF0000" stroke-width="0.1" style="stroke:#FF0000;stroke-width:0.1" vector-effect="non-scaling-stroke"/><path d="M 26.496 71.641 L 26.528 71.641 A 3.992 3.992 0 0 1 26.627 71.507 Q 26.741 71.36 26.903 71.171 A 14.489 14.489 0 0 1 27.06 70.991 L 28.498 69.467 L 29.299 69.467 L 27.495 71.365 L 29.425 73.92 L 28.608 73.92 L 27.036 71.816 L 26.528 72.254 L 26.528 73.92 L 25.862 73.92 L 25.862 67.599 L 26.528 67.599 L 26.528 70.95 Q 26.528 71.174 26.496 71.641 Z M 12.85 73.347 L 12.801 73.347 L 12.659 73.92 L 12.175 73.92 L 12.175 67.599 L 12.85 67.599 L 12.85 69.134 A 14.06 14.06 0 0 1 12.842 69.609 Q 12.834 69.849 12.817 70.061 L 12.85 70.061 A 1.533 1.533 0 0 1 13.969 69.411 A 2.303 2.303 0 0 1 14.247 69.394 A 2.061 2.061 0 0 1 14.827 69.472 A 1.543 1.543 0 0 1 15.61 69.994 A 1.987 1.987 0 0 1 15.959 70.665 Q 16.044 70.941 16.076 71.272 A 4.329 4.329 0 0 1 16.096 71.69 Q 16.096 72.464 15.852 72.994 A 1.895 1.895 0 0 1 15.606 73.394 A 1.596 1.596 0 0 1 14.471 73.99 A 2.287 2.287 0 0 1 14.247 74.001 A 2.046 2.046 0 0 1 13.733 73.939 A 1.78 1.78 0 0 1 13.453 73.841 A 1.494 1.494 0 0 1 12.85 73.347 Z M 20.512 73.92 L 20.012 73.92 L 19.878 73.286 L 19.845 73.286 A 2.796 2.796 0 0 1 19.619 73.539 Q 19.4 73.755 19.181 73.853 Q 18.85 74.001 18.354 74.001 Q 17.825 74.001 17.478 73.783 A 1.161 1.161 0 0 1 17.316 73.66 A 1.108 1.108 0 0 1 16.982 73.075 A 1.697 1.697 0 0 1 16.941 72.689 A 1.167 1.167 0 0 1 17.604 71.588 Q 18.099 71.325 18.961 71.281 A 6.588 6.588 0 0 1 19.098 71.275 L 19.853 71.251 L 19.853 70.975 A 1.937 1.937 0 0 0 19.835 70.695 Q 19.788 70.378 19.628 70.201 A 0.685 0.685 0 0 0 19.348 70.018 Q 19.235 69.977 19.096 69.961 A 1.666 1.666 0 0 0 18.907 69.951 A 2.196 2.196 0 0 0 18.402 70.014 Q 18.17 70.069 17.917 70.171 A 4.517 4.517 0 0 0 17.647 70.292 L 17.44 69.776 A 3.109 3.109 0 0 1 18.04 69.53 A 3.539 3.539 0 0 1 18.161 69.496 A 3.123 3.123 0 0 1 18.948 69.394 Q 19.445 69.394 19.782 69.533 A 1.148 1.148 0 0 1 20.128 69.748 A 1.068 1.068 0 0 1 20.403 70.173 Q 20.512 70.467 20.512 70.881 L 20.512 73.92 Z M 24.871 69.618 L 24.663 70.191 A 3 3 0 0 0 24.338 70.082 A 3.583 3.583 0 0 0 24.176 70.042 A 2.786 2.786 0 0 0 23.964 70.003 Q 23.861 69.988 23.769 69.985 A 1.495 1.495 0 0 0 23.709 69.983 A 1.496 1.496 0 0 0 23.101 70.098 Q 22.465 70.378 22.369 71.349 A 3.726 3.726 0 0 0 22.352 71.714 A 3.266 3.266 0 0 0 22.384 72.19 Q 22.42 72.431 22.494 72.627 A 1.399 1.399 0 0 0 22.683 72.973 A 1.071 1.071 0 0 0 23.377 73.388 A 1.632 1.632 0 0 0 23.664 73.412 A 2.823 2.823 0 0 0 24.443 73.299 A 3.486 3.486 0 0 0 24.806 73.172 L 24.806 73.77 Q 24.422 73.968 23.867 73.997 A 3.698 3.698 0 0 1 23.68 74.001 A 2.52 2.52 0 0 1 23.067 73.931 A 1.709 1.709 0 0 1 22.183 73.406 Q 21.653 72.811 21.653 71.722 Q 21.653 70.913 21.935 70.371 A 1.859 1.859 0 0 1 22.191 69.996 A 1.746 1.746 0 0 1 23.148 69.446 A 2.647 2.647 0 0 1 23.725 69.386 A 3.043 3.043 0 0 1 24.367 69.455 A 3.366 3.366 0 0 1 24.554 69.501 Q 24.742 69.553 24.867 69.616 A 0.995 0.995 0 0 1 24.871 69.618 Z M 14.15 69.959 A 1.895 1.895 0 0 0 13.783 69.992 Q 13.574 70.033 13.415 70.126 A 0.897 0.897 0 0 0 13.154 70.355 Q 12.887 70.703 12.854 71.47 A 5.196 5.196 0 0 0 12.85 71.69 Q 12.85 72.628 13.163 73.032 A 0.978 0.978 0 0 0 13.659 73.367 Q 13.88 73.437 14.166 73.437 A 1.344 1.344 0 0 0 14.548 73.385 A 0.97 0.97 0 0 0 15.092 72.984 Q 15.31 72.66 15.372 72.134 A 3.864 3.864 0 0 0 15.397 71.682 A 3.984 3.984 0 0 0 15.373 71.228 Q 15.311 70.692 15.092 70.386 A 0.983 0.983 0 0 0 14.466 69.989 A 1.56 1.56 0 0 0 14.15 69.959 Z M 19.837 72.132 L 19.837 71.73 L 19.163 71.759 A 4.952 4.952 0 0 0 18.767 71.787 Q 18.377 71.833 18.132 71.941 A 1.036 1.036 0 0 0 18.003 72.009 A 0.72 0.72 0 0 0 17.66 72.531 A 1.065 1.065 0 0 0 17.647 72.697 A 0.964 0.964 0 0 0 17.671 72.918 Q 17.711 73.088 17.819 73.205 A 0.601 0.601 0 0 0 17.869 73.254 A 0.734 0.734 0 0 0 18.144 73.4 Q 18.253 73.432 18.383 73.441 A 1.517 1.517 0 0 0 18.488 73.445 A 1.857 1.857 0 0 0 18.889 73.404 Q 19.169 73.342 19.375 73.187 A 1.126 1.126 0 0 0 19.478 73.099 Q 19.835 72.756 19.837 72.139 A 2.151 2.151 0 0 0 19.837 72.132 Z" id="back_labelLayer" stroke="#000000" fill="#000000" style="stroke:#000000;fill:#000000" vector-effect="non-scaling-stroke"/><path d="M 58.7 141.131 L 58.7 139.1 L 62.1 139.1 L 62.1 141.131 L 62.569 141.6 L 68.231 141.6 L 68.7 141.131 L 68.7 139.1 L 72.1 139.1 L 72.1 141.131 L 72.569 141.6 L 78.231 141.6 L 78.7 141.131 L 78.7 139.1 L 82.1 139.1 L 82.1 141.131 L 82.569 141.6 L 88.231 141.6 L 88.7 141.131 L 88.7 139.1 L 92.1 139.1 L 92.1 141.131 L 92.569 141.6 L 98.231 141.6 L 98.7 141.131 L 98.7 139.1 L 102.1 139.1 L 102.1 141.131 L 102.569 141.6 L 108.231 141.6 L 108.7 141.131 L 108.7 139.1 L 112.1 139.1 L 112.1 141.131 L 112.569 141.6 L 118.231 141.6 L 118.7 141.131 L 118.7 139.1 L 122.1 139.1 L 122.1 141.131 L 122.569 141.6 L 128.231 141.6 L 128.7 141.131 L 128.7 139.1 L 132.1 139.1 L 132.1 141.131 L 132.569 141.6 L 138.231 141.6 L 138.7 141.131 L 138.7 139.1 L 142.1 139.1 L 142.1 141.131 L 142.569 141.6 L 148.231 141.6 L 148.7 141.131 L 148.7 139.1 L 152.1 139.1 L 152.1 141.131 L 152.569 141.6 L 158.231 141.6 L 158.7 141.131 L 158.7 139.1 L 162.1 139.1 L 162.1 141.131 L 162.569 141.6 L 168.231 141.6 L 168.7 141.131 L 168.7 139.1 L 172.1 139.1 L 172.1 141.131 L 172.569 141.6 L 178.231 141.6 L 178.7 141.131 L 178.7 139.1 L 182.1 139.1 L 182.1 141.131 L 182.569 141.6 L 188.231 141.6 L 188.7 141.131 L 188.7 139.1 L 192.1 139.1 L 192.1 141.131 L 192.569 141.6 L 198.231 141.6 L 198.7 141.131 L 198.7 139.1 L 202.1 139.1 L 202.1 141.131 L 202.569 141.6 L 208.231 141.6 L 208.7 141.131 L 208.7 139.1 L 212.1 139.1 L 212.1 141.131 L 212.569 141.6 L 218.231 141.6 L 218.7 141.131 L 218.7 139.1 L 222.1 139.1 L 222.1 141.131 L 222.569 141.6 L 228.231 141.6 L 228.7 141.131 L 228.7 139.1 L 232.1 139.1 L 232.1 141.131 L 232.569 141.6 L 238.231 141.6 L 238.7 141.131 L 238.7 139.1 L 242.1 139.1 L 242.1 141.131 L 242.569 141.6 L 248.231 141.6 L 248.7 141.131 L 248.7 139.1 L 252.1 139.1 L 252.1 141.131 L 252.569 141.6 L 258.231 141.6 L 258.7 141.131 L 258.7 139.1 L 262.1 139.1 L 262.1 141.131 L 262.569 141.6 L 268.231 141.6 L 268.7 141.131 L 268.7 139.1 L 272.1 139.1 L 272.1 141.131 L 272.569 141.6 L 278.231 141.6 L 278.7 141.131 L 278.7 139.1 L 282.1 139.1 L 282.1 141.131 L 282.569 141.6 L 293.231 141.6 L 293.7 141.131 L 293.7 134.1 L 295.731 134.1 L 296.2 133.631 L 296.2 127.969 L 295.731 127.5 L 293.7 127.5 L 293.7 124.1 L 295.731 124.1 L 296.2 123.631 L 296.2 117.969 L 295.731 117.5 L 293.7 117.5 L 293.7 114.1 L 295.731 114.1 L 296.2 113.631 L 296.2 107.969 L 295.731 107.5 L 293.7 107.5 L 293.7 104.1 L 295.731 104.1 L 296.2 103.631 L 296.2 97.969 L 295.731 97.5 L 293.7 97.5 L 293.7 94.1 L 295.731 94.1 L 296.2 93.631 L 296.2 87.969 L 295.731 87.5 L 293.7 87.5 L 293.7 84.1 L 295.731 84.1 L 296.2 83.631 L 296.2 77.969 L 295.731 77.5 L 293.7 77.5 L 293.7 74.1 L 295.731 74.1 L 296.2 73.631 L 296.2 67.969 L 295.731 67.5 L 293.7 67.5 L 293.7 64.1 L 295.731 64.1 L 296.2 63.631 L 296.2 57.969 L 295.731 57.5 L 293.7 57.5 L 293.7 54.1 L 295.731 54.1 L 296.2 53.631 L 296.2 47.969 L 295.731 47.5 L 293.7 47.5 L 293.7 44.1 L 295.731 44.1 L 296.2 43.631 L 296.2 37.969 L 295.731 37.5 L 293.7 37.5 L 293.7 34.1 L 295.731 34.1 L 296.2 33.631 L 296.2 27.969 L 295.731 27.5 L 293.7 27.5 L 293.7 24.1 L 295.731 24.1 L 296.2 23.631 L 296.2 17.969 L 295.731 17.5 L 293.7 17.5 L 293.7 14.1 L 295.731 14.1 L 296.2 13.631 L 296.2 7.969 L 295.731 7.5 L 293.7 7.5 L 293.7 0.469 L 293.231 0 L 47.569 0 L 47.1 0.469 L 47.1 7.5 L 45.069 7.5 L 44.6 7.969 L 44.6 13.631 L 45.069 14.1 L 47.1 14.1 L 47.1 17.5 L 45.069 17.5 L 44.6 17.969 L 44.6 23.631 L 45.069 24.1 L 47.1 24.1 L 47.1 27.5 L 45.069 27.5 L 44.6 27.969 L 44.6 33.631 L 45.069 34.1 L 47.1 34.1 L 47.1 37.5 L 45.069 37.5 L 44.6 37.969 L 44.6 43.631 L 45.069 44.1 L 47.1 44.1 L 47.1 47.5 L 45.069 47.5 L 44.6 47.969 L 44.6 53.631 L 45.069 54.1 L 47.1 54.1 L 47.1 57.5 L 45.069 57.5 L 44.6 57.969 L 44.6 63.631 L 45.069 64.1 L 47.1 64.1 L 47.1 67.5 L 45.069 67.5 L 44.6 67.969 L 44.6 73.631 L 45.069 74.1 L 47.1 74.1 L 47.1 77.5 L 45.069 77.5 L 44.6 77.969 L 44.6 83.631 L 45.069 84.1 L 47.1 84.1 L 47.1 87.5 L 45.069 87.5 L 44.6 87.969 L 44.6 93.631 L 45.069 94.1 L 47.1 94.1 L 47.1 97.5 L 45.069 97.5 L 44.6 97.969 L 44.6 103.631 L 45.069 104.1 L 47.1 104.1 L 47.1 107.5 L 45.069 107.5 L 44.6 107.969 L 44.6 113.631 L 45.069 114.1 L 47.1 114.1 L 47.1 117.5 L 45.069 117.5 L 44.6 117.969 L 44.6 123.631 L 45.069 124.1 L 47.1 124.1 L 47.1 127.5 L 45.069 127.5 L 44.6 127.969 L 44.6 133.631 L 45.069 134.1 L 47.1 134.1 L 47.1 141.131 L 47.569 141.6 L 58.231 141.6 L 58.7 141.131 Z" id="right_outsideCutPath" stroke="#FF0000" stroke-width="0.1" style="stroke:#FF0000;stroke-width:0.1" vector-effect="non-scaling-stroke"/><path d="M 188.01 78.156 L 185.715 78.156 L 185.715 68.352 A 6.489 6.489 0 0 0 185.64 67.335 Q 185.555 66.799 185.372 66.372 A 2.731 2.731 0 0 0 184.871 65.587 Q 184.188 64.848 182.88 64.707 A 6.085 6.085 0 0 0 182.23 64.674 Q 180.668 64.674 179.657 65.228 A 3.214 3.214 0 0 0 178.738 65.974 A 3.819 3.819 0 0 0 178.09 67.122 Q 177.699 68.175 177.647 69.738 A 14.815 14.815 0 0 0 177.639 70.233 L 177.639 78.156 L 175.344 78.156 L 175.344 56.64 L 177.639 56.64 L 177.639 63.153 A 20.65 20.65 0 0 1 177.625 63.946 Q 177.599 64.607 177.528 65.103 L 177.667 65.103 A 4.586 4.586 0 0 1 179.273 63.556 A 5.603 5.603 0 0 1 179.596 63.381 A 5.893 5.893 0 0 1 181.53 62.807 A 7.45 7.45 0 0 1 182.451 62.752 A 9.313 9.313 0 0 1 184.016 62.875 Q 185.654 63.154 186.62 64.073 A 3.997 3.997 0 0 1 187.606 65.62 Q 187.843 66.264 187.941 67.063 A 9.926 9.926 0 0 1 188.01 68.269 L 188.01 78.156 Z M 166.991 63.001 L 172.232 63.001 L 172.232 64.453 L 169.425 64.785 A 3.73 3.73 0 0 1 169.748 65.265 Q 169.89 65.513 170.018 65.81 A 7.076 7.076 0 0 1 170.117 66.05 Q 170.421 66.831 170.421 67.813 A 5.262 5.262 0 0 1 170.179 69.444 A 4.256 4.256 0 0 1 168.9 71.367 Q 167.379 72.694 164.724 72.694 Q 164.046 72.694 163.451 72.584 Q 162.615 73.026 162.255 73.599 A 1.727 1.727 0 0 0 161.986 74.534 A 1.19 1.19 0 0 0 162.046 74.923 Q 162.156 75.242 162.466 75.434 A 1.273 1.273 0 0 0 162.497 75.453 Q 163.009 75.75 164.253 75.75 L 166.936 75.75 Q 169.397 75.75 170.718 76.787 A 3.358 3.358 0 0 1 171.966 78.927 A 5.044 5.044 0 0 1 172.039 79.802 A 4.97 4.97 0 0 1 171.755 81.521 Q 171.296 82.774 170.098 83.587 A 5.458 5.458 0 0 1 170.02 83.639 Q 168.612 84.56 166.303 84.839 A 18.194 18.194 0 0 1 164.129 84.96 Q 162.178 84.96 160.813 84.483 A 5.335 5.335 0 0 1 159.545 83.854 A 3.658 3.658 0 0 1 158.366 82.574 Q 157.988 81.874 157.941 80.986 A 4.847 4.847 0 0 1 157.934 80.729 Q 157.934 79.346 158.819 78.336 A 4.008 4.008 0 0 1 160.196 77.333 A 5.681 5.681 0 0 1 161.308 76.967 A 2.382 2.382 0 0 1 160.383 76.219 A 2.828 2.828 0 0 1 160.333 76.151 Q 159.939 75.598 159.939 74.865 A 2.625 2.625 0 0 1 160.071 74.02 A 2.326 2.326 0 0 1 160.382 73.413 Q 160.716 72.943 161.342 72.497 A 7.211 7.211 0 0 1 161.778 72.21 A 4.024 4.024 0 0 1 160.03 70.811 A 4.988 4.988 0 0 1 159.863 70.565 Q 159.123 69.403 159.123 67.91 A 6.632 6.632 0 0 1 159.298 66.342 A 4.363 4.363 0 0 1 160.617 64.073 Q 161.907 62.908 164.125 62.749 A 10.138 10.138 0 0 1 164.848 62.724 A 8.799 8.799 0 0 1 166.012 62.798 A 6.701 6.701 0 0 1 166.991 63.001 Z M 199.695 76.262 L 199.695 78.018 A 2.258 2.258 0 0 1 199.427 78.124 Q 199.141 78.219 198.733 78.292 A 8.585 8.585 0 0 1 198.596 78.316 Q 197.918 78.425 197.367 78.433 A 5.883 5.883 0 0 1 197.289 78.433 Q 192.891 78.433 192.891 73.801 L 192.891 64.785 L 190.72 64.785 L 190.72 63.678 L 192.891 62.724 L 193.859 59.489 L 195.187 59.489 L 195.187 63.001 L 199.584 63.001 L 199.584 64.785 L 195.187 64.785 L 195.187 73.704 A 4.622 4.622 0 0 0 195.254 74.516 Q 195.395 75.308 195.837 75.806 A 2.132 2.132 0 0 0 197.148 76.504 A 3.068 3.068 0 0 0 197.621 76.539 A 7.539 7.539 0 0 0 198.725 76.46 A 6.953 6.953 0 0 0 198.796 76.449 Q 199.337 76.363 199.664 76.271 A 3.447 3.447 0 0 0 199.695 76.262 Z M 149.831 62.89 L 149.513 65.02 A 10.117 10.117 0 0 0 148.785 64.885 Q 148.422 64.833 148.1 64.818 A 5.384 5.384 0 0 0 147.853 64.812 A 3.977 3.977 0 0 0 144.915 66.082 A 5.441 5.441 0 0 0 144.707 66.306 A 5.242 5.242 0 0 0 143.443 69.249 A 6.967 6.967 0 0 0 143.401 70.026 L 143.401 78.156 L 141.105 78.156 L 141.105 63.001 L 143 63.001 L 143.262 65.808 L 143.373 65.808 Q 144.216 64.328 145.406 63.526 Q 146.595 62.724 148.019 62.724 A 10.538 10.538 0 0 1 148.963 62.764 A 7.691 7.691 0 0 1 149.831 62.89 Z M 154.961 63.001 L 154.961 78.156 L 152.665 78.156 L 152.665 63.001 L 154.961 63.001 Z M 166.203 77.811 L 163.451 77.811 Q 161.889 77.811 161.018 78.557 A 2.419 2.419 0 0 0 160.223 79.929 A 3.673 3.673 0 0 0 160.146 80.701 A 2.305 2.305 0 0 0 160.298 81.556 Q 160.543 82.175 161.184 82.568 Q 162.221 83.204 164.157 83.204 Q 167.047 83.204 168.436 82.339 A 3.348 3.348 0 0 0 169.213 81.689 A 2.509 2.509 0 0 0 169.826 79.996 Q 169.826 78.765 169.066 78.288 A 2.177 2.177 0 0 0 168.549 78.063 Q 167.999 77.893 167.129 77.838 A 14.606 14.606 0 0 0 166.203 77.811 Z M 161.391 67.855 A 4.481 4.481 0 0 0 161.483 68.794 Q 161.608 69.376 161.903 69.813 A 2.456 2.456 0 0 0 162.29 70.261 A 2.967 2.967 0 0 0 163.484 70.909 Q 164.066 71.076 164.793 71.076 Q 167.445 71.076 168.004 69.043 A 4.649 4.649 0 0 0 168.153 67.813 A 4.936 4.936 0 0 0 167.984 66.461 Q 167.552 64.946 166.011 64.543 A 4.992 4.992 0 0 0 164.751 64.397 A 4.817 4.817 0 0 0 163.77 64.491 Q 163.168 64.617 162.71 64.909 A 2.642 2.642 0 0 0 162.262 65.269 A 2.755 2.755 0 0 0 161.595 66.391 Q 161.455 66.826 161.411 67.355 A 6.039 6.039 0 0 0 161.391 67.855 Z M 152.504 58.473 A 2.544 2.544 0 0 0 152.472 58.894 A 2.71 2.71 0 0 0 152.484 59.153 Q 152.506 59.385 152.57 59.574 A 1.185 1.185 0 0 0 152.859 60.049 Q 153.246 60.429 153.827 60.429 Q 154.38 60.429 154.781 60.049 Q 155.182 59.668 155.182 58.894 Q 155.182 58.516 155.087 58.233 A 1.159 1.159 0 0 0 154.781 57.746 Q 154.38 57.373 153.827 57.373 A 1.752 1.752 0 0 0 153.711 57.377 A 1.327 1.327 0 0 0 152.859 57.739 A 1.074 1.074 0 0 0 152.622 58.076 Q 152.541 58.251 152.504 58.473 Z" id="right_labelLayer" stroke="#000000" fill="#000000" style="stroke:#000000;fill:#000000" vector-effect="non-scaling-stroke"/><path d="M 313.3 285.731 L 313.3 283.7 L 316.7 283.7 L 316.7 285.731 L 317.169 286.2 L 322.831 286.2 L 323.3 285.731 L 323.3 283.7 L 326.7 283.7 L 326.7 285.731 L 327.169 286.2 L 332.831 286.2 L 333.3 285.731 L 333.3 283.7 L 337.831 283.7 L 338.3 283.231 L 338.3 273.7 L 340.331 273.7 L 340.8 273.231 L 340.8 267.569 L 340.331 267.1 L 338.3 267.1 L 338.3 263.7 L 340.331 263.7 L 340.8 263.231 L 340.8 257.569 L 340.331 257.1 L 338.3 257.1 L 338.3 253.7 L 340.331 253.7 L 340.8 253.231 L 340.8 247.569 L 340.331 247.1 L 338.3 247.1 L 338.3 243.7 L 340.331 243.7 L 340.8 243.231 L 340.8 237.569 L 340.331 237.1 L 338.3 237.1 L 338.3 233.7 L 340.331 233.7 L 340.8 233.231 L 340.8 227.569 L 340.331 227.1 L 338.3 227.1 L 338.3 223.7 L 340.331 223.7 L 340.8 223.231 L 340.8 217.569 L 340.331 217.1 L 338.3 217.1 L 338.3 213.7 L 340.331 213.7 L 340.8 213.231 L 340.8 207.569 L 340.331 207.1 L 338.3 207.1 L 338.3 203.7 L 340.331 203.7 L 340.8 203.231 L 340.8 197.569 L 340.331 197.1 L 338.3 197.1 L 338.3 193.7 L 340.331 193.7 L 340.8 193.231 L 340.8 187.569 L 340.331 187.1 L 338.3 187.1 L 338.3 183.7 L 340.331 183.7 L 340.8 183.231 L 340.8 177.569 L 340.331 177.1 L 338.3 177.1 L 338.3 173.7 L 340.331 173.7 L 340.8 173.231 L 340.8 167.569 L 340.331 167.1 L 338.3 167.1 L 338.3 163.7 L 340.331 163.7 L 340.8 163.231 L 340.8 157.569 L 340.331 157.1 L 338.3 157.1 L 338.3 153.7 L 340.331 153.7 L 340.8 153.231 L 340.8 147.569 L 340.331 147.1 L 338.3 147.1 L 338.3 143.7 L 340.331 143.7 L 340.8 143.231 L 340.8 137.569 L 340.331 137.1 L 338.3 137.1 L 338.3 133.7 L 340.331 133.7 L 340.8 133.231 L 340.8 127.569 L 340.331 127.1 L 338.3 127.1 L 338.3 123.7 L 340.331 123.7 L 340.8 123.231 L 340.8 117.569 L 340.331 117.1 L 338.3 117.1 L 338.3 113.7 L 340.331 113.7 L 340.8 113.231 L 340.8 107.569 L 340.331 107.1 L 338.3 107.1 L 338.3 103.7 L 340.331 103.7 L 340.8 103.231 L 340.8 97.569 L 340.331 97.1 L 338.3 97.1 L 338.3 93.7 L 340.331 93.7 L 340.8 93.231 L 340.8 87.569 L 340.331 87.1 L 338.3 87.1 L 338.3 83.7 L 340.331 83.7 L 340.8 83.231 L 340.8 77.569 L 340.331 77.1 L 338.3 77.1 L 338.3 73.7 L 340.331 73.7 L 340.8 73.231 L 340.8 67.569 L 340.331 67.1 L 338.3 67.1 L 338.3 63.7 L 340.331 63.7 L 340.8 63.231 L 340.8 57.569 L 340.331 57.1 L 338.3 57.1 L 338.3 53.7 L 340.331 53.7 L 340.8 53.231 L 340.8 47.569 L 340.331 47.1 L 338.3 47.1 L 338.3 37.569 L 337.831 37.1 L 333.3 37.1 L 333.3 35.069 L 332.831 34.6 L 327.169 34.6 L 326.7 35.069 L 326.7 37.1 L 323.3 37.1 L 323.3 35.069 L 322.831 34.6 L 317.169 34.6 L 316.7 35.069 L 316.7 37.1 L 313.3 37.1 L 313.3 35.069 L 312.831 34.6 L 307.169 34.6 L 306.7 35.069 L 306.7 37.1 L 302.169 37.1 L 301.7 37.569 L 301.7 47.1 L 299.669 47.1 L 299.2 47.569 L 299.2 53.231 L 299.669 53.7 L 301.7 53.7 L 301.7 57.1 L 299.669 57.1 L 299.2 57.569 L 299.2 63.231 L 299.669 63.7 L 301.7 63.7 L 301.7 67.1 L 299.669 67.1 L 299.2 67.569 L 299.2 73.231 L 299.669 73.7 L 301.7 73.7 L 301.7 77.1 L 299.669 77.1 L 299.2 77.569 L 299.2 83.231 L 299.669 83.7 L 301.7 83.7 L 301.7 87.1 L 299.669 87.1 L 299.2 87.569 L 299.2 93.231 L 299.669 93.7 L 301.7 93.7 L 301.7 97.1 L 299.669 97.1 L 299.2 97.569 L 299.2 103.231 L 299.669 103.7 L 301.7 103.7 L 301.7 107.1 L 299.669 107.1 L 299.2 107.569 L 299.2 113.231 L 299.669 113.7 L 301.7 113.7 L 301.7 117.1 L 299.669 117.1 L 299.2 117.569 L 299.2 123.231 L 299.669 123.7 L 301.7 123.7 L 301.7 127.1 L 299.669 127.1 L 299.2 127.569 L 299.2 133.231 L 299.669 133.7 L 301.7 133.7 L 301.7 137.1 L 299.669 137.1 L 299.2 137.569 L 299.2 143.231 L 299.669 143.7 L 301.7 143.7 L 301.7 147.1 L 299.669 147.1 L 299.2 147.569 L 299.2 153.231 L 299.669 153.7 L 301.7 153.7 L 301.7 157.1 L 299.669 157.1 L 299.2 157.569 L 299.2 163.231 L 299.669 163.7 L 301.7 163.7 L 301.7 167.1 L 299.669 167.1 L 299.2 167.569 L 299.2 173.231 L 299.669 173.7 L 301.7 173.7 L 301.7 177.1 L 299.669 177.1 L 299.2 177.569 L 299.2 183.231 L 299.669 183.7 L 301.7 183.7 L 301.7 187.1 L 299.669 187.1 L 299.2 187.569 L 299.2 193.231 L 299.669 193.7 L 301.7 193.7 L 301.7 197.1 L 299.669 197.1 L 299.2 197.569 L 299.2 203.231 L 299.669 203.7 L 301.7 203.7 L 301.7 207.1 L 299.669 207.1 L 299.2 207.569 L 299.2 213.231 L 299.669 213.7 L 301.7 213.7 L 301.7 217.1 L 299.669 217.1 L 299.2 217.569 L 299.2 223.231 L 299.669 223.7 L 301.7 223.7 L 301.7 227.1 L 299.669 227.1 L 299.2 227.569 L 299.2 233.231 L 299.669 233.7 L 301.7 233.7 L 301.7 237.1 L 299.669 237.1 L 299.2 237.569 L 299.2 243.231 L 299.669 243.7 L 301.7 243.7 L 301.7 247.1 L 299.669 247.1 L 299.2 247.569 L 299.2 253.231 L 299.669 253.7 L 301.7 253.7 L 301.7 257.1 L 299.669 257.1 L 299.2 257.569 L 299.2 263.231 L 299.669 263.7 L 301.7 263.7 L 301.7 267.1 L 299.669 267.1 L 299.2 267.569 L 299.2 273.231 L 299.669 273.7 L 301.7 273.7 L 301.7 283.231 L 302.169 283.7 L 306.7 283.7 L 306.7 285.731 L 307.169 286.2 L 312.831 286.2 L 313.3 285.731 Z" id="bottom_outsideCutPath" stroke="#FF0000" stroke-width="0.1" style="stroke:#FF0000;stroke-width:0.1" vector-effect="non-scaling-stroke"/><path d="M 333.687 163.52 L 333.012 163.52 L 333.012 160.623 A 1.989 1.989 0 0 0 332.992 160.331 Q 332.97 160.181 332.923 160.061 A 0.815 0.815 0 0 0 332.785 159.825 A 0.71 0.71 0 0 0 332.455 159.612 Q 332.337 159.574 332.194 159.563 A 1.565 1.565 0 0 0 332.078 159.559 Q 331.448 159.559 331.147 159.921 Q 330.847 160.282 330.847 161.034 L 330.847 163.52 L 330.172 163.52 L 330.172 160.623 A 1.989 1.989 0 0 0 330.152 160.331 Q 330.13 160.181 330.083 160.061 A 0.815 0.815 0 0 0 329.945 159.825 Q 329.748 159.595 329.359 159.564 A 1.579 1.579 0 0 0 329.234 159.559 A 1.675 1.675 0 0 0 328.888 159.592 Q 328.674 159.638 328.515 159.744 A 0.884 0.884 0 0 0 328.306 159.939 Q 328.011 160.319 328.011 161.184 L 328.011 163.52 L 327.337 163.52 L 327.337 159.067 L 327.885 159.067 L 327.995 159.677 L 328.027 159.677 A 1.325 1.325 0 0 1 328.566 159.169 A 1.601 1.601 0 0 1 329.198 158.992 A 1.934 1.934 0 0 1 329.344 158.986 Q 329.99 158.986 330.36 159.276 A 1.151 1.151 0 0 1 330.709 159.742 L 330.741 159.742 Q 330.94 159.392 331.318 159.189 A 1.707 1.707 0 0 1 331.944 158.999 A 2.128 2.128 0 0 1 332.179 158.986 Q 332.689 158.986 333.025 159.162 A 1.111 1.111 0 0 1 333.311 159.374 A 1.161 1.161 0 0 1 333.56 159.782 Q 333.627 159.962 333.659 160.186 A 3.093 3.093 0 0 1 333.687 160.615 L 333.687 163.52 Z M 306.988 162.947 L 306.939 162.947 L 306.797 163.52 L 306.313 163.52 L 306.313 157.199 L 306.988 157.199 L 306.988 158.734 A 14.06 14.06 0 0 1 306.98 159.209 Q 306.972 159.449 306.955 159.661 L 306.988 159.661 A 1.533 1.533 0 0 1 308.107 159.011 A 2.303 2.303 0 0 1 308.385 158.994 A 2.061 2.061 0 0 1 308.965 159.072 A 1.543 1.543 0 0 1 309.748 159.593 A 1.987 1.987 0 0 1 310.097 160.265 Q 310.182 160.541 310.214 160.872 A 4.329 4.329 0 0 1 310.234 161.29 Q 310.234 162.064 309.99 162.594 A 1.895 1.895 0 0 1 309.744 162.994 A 1.596 1.596 0 0 1 308.61 163.59 A 2.287 2.287 0 0 1 308.385 163.601 A 2.046 2.046 0 0 1 307.871 163.538 A 1.78 1.78 0 0 1 307.591 163.441 A 1.494 1.494 0 0 1 306.988 162.947 Z M 318.485 162.963 L 318.485 163.479 A 0.663 0.663 0 0 1 318.406 163.51 Q 318.308 163.543 318.162 163.567 Q 317.963 163.599 317.801 163.601 A 1.727 1.727 0 0 1 317.778 163.601 A 1.761 1.761 0 0 1 317.259 163.531 Q 316.688 163.355 316.539 162.735 A 2.12 2.12 0 0 1 316.486 162.24 L 316.486 159.591 L 315.848 159.591 L 315.848 159.266 L 316.486 158.986 L 316.77 158.036 L 317.16 158.036 L 317.16 159.067 L 318.452 159.067 L 318.452 159.591 L 317.16 159.591 L 317.16 162.212 A 1.358 1.358 0 0 0 317.18 162.45 Q 317.203 162.581 317.255 162.685 A 0.654 0.654 0 0 0 317.351 162.829 A 0.626 0.626 0 0 0 317.736 163.034 A 0.901 0.901 0 0 0 317.875 163.045 Q 318.054 163.045 318.221 163.018 A 3.648 3.648 0 0 0 318.318 163.001 Q 318.411 162.984 318.476 162.966 A 1.018 1.018 0 0 0 318.485 162.963 Z M 321.422 162.963 L 321.422 163.479 A 0.663 0.663 0 0 1 321.343 163.51 Q 321.246 163.543 321.099 163.567 Q 320.9 163.599 320.738 163.601 A 1.727 1.727 0 0 1 320.715 163.601 A 1.761 1.761 0 0 1 320.196 163.531 Q 319.625 163.355 319.476 162.735 A 2.12 2.12 0 0 1 319.423 162.24 L 319.423 159.591 L 318.785 159.591 L 318.785 159.266 L 319.423 158.986 L 319.707 158.036 L 320.097 158.036 L 320.097 159.067 L 321.389 159.067 L 321.389 159.591 L 320.097 159.591 L 320.097 162.212 A 1.358 1.358 0 0 0 320.117 162.45 Q 320.14 162.581 320.192 162.685 A 0.654 0.654 0 0 0 320.288 162.829 A 0.626 0.626 0 0 0 320.674 163.034 A 0.901 0.901 0 0 0 320.812 163.045 Q 320.991 163.045 321.158 163.018 A 3.648 3.648 0 0 0 321.255 163.001 Q 321.348 162.984 321.413 162.966 A 1.018 1.018 0 0 0 321.422 162.963 Z M 314.707 162.99 A 1.881 1.881 0 0 0 314.931 162.682 Q 315.255 162.127 315.255 161.29 A 3.958 3.958 0 0 0 315.254 161.183 Q 315.244 160.812 315.163 160.497 A 2.1 2.1 0 0 0 314.705 159.608 A 1.765 1.765 0 0 0 313.885 159.079 A 2.266 2.266 0 0 0 313.22 158.986 A 2.619 2.619 0 0 0 312.749 159.027 A 1.784 1.784 0 0 0 311.708 159.593 Q 311.347 159.997 311.225 160.612 A 3.502 3.502 0 0 0 311.164 161.29 A 3.374 3.374 0 0 0 311.206 161.836 A 2.495 2.495 0 0 0 311.416 162.516 A 2.217 2.217 0 0 0 311.465 162.613 A 1.826 1.826 0 0 0 312.131 163.321 A 1.878 1.878 0 0 0 312.562 163.512 A 2.166 2.166 0 0 0 313.191 163.601 A 2.619 2.619 0 0 0 313.649 163.563 A 1.798 1.798 0 0 0 314.707 162.99 Z M 325.606 162.99 A 1.881 1.881 0 0 0 325.83 162.682 Q 326.155 162.127 326.155 161.29 A 3.958 3.958 0 0 0 326.153 161.183 Q 326.143 160.812 326.063 160.497 A 2.1 2.1 0 0 0 325.604 159.608 A 1.765 1.765 0 0 0 324.785 159.079 A 2.266 2.266 0 0 0 324.119 158.986 A 2.619 2.619 0 0 0 323.649 159.027 A 1.784 1.784 0 0 0 322.608 159.593 Q 322.247 159.997 322.125 160.612 A 3.502 3.502 0 0 0 322.064 161.29 A 3.374 3.374 0 0 0 322.106 161.836 A 2.495 2.495 0 0 0 322.316 162.516 A 2.217 2.217 0 0 0 322.365 162.613 A 1.826 1.826 0 0 0 323.031 163.321 A 1.878 1.878 0 0 0 323.462 163.512 A 2.166 2.166 0 0 0 324.091 163.601 A 2.619 2.619 0 0 0 324.548 163.563 A 1.798 1.798 0 0 0 325.606 162.99 Z M 311.863 161.29 A 3.415 3.415 0 0 0 311.895 161.777 Q 311.968 162.281 312.204 162.59 A 1.105 1.105 0 0 0 312.924 163.014 A 1.675 1.675 0 0 0 313.207 163.036 A 1.566 1.566 0 0 0 313.621 162.985 A 1.09 1.09 0 0 0 314.213 162.592 Q 314.556 162.147 314.556 161.29 A 3.365 3.365 0 0 0 314.524 160.81 Q 314.489 160.566 314.415 160.368 A 1.389 1.389 0 0 0 314.213 160 A 1.109 1.109 0 0 0 313.523 159.588 A 1.701 1.701 0 0 0 313.199 159.559 Q 312.537 159.559 312.2 159.994 A 1.394 1.394 0 0 0 311.983 160.412 Q 311.919 160.605 311.889 160.841 A 3.564 3.564 0 0 0 311.863 161.29 Z M 322.762 161.29 A 3.415 3.415 0 0 0 322.795 161.777 Q 322.868 162.281 323.104 162.59 A 1.105 1.105 0 0 0 323.824 163.014 A 1.675 1.675 0 0 0 324.107 163.036 A 1.566 1.566 0 0 0 324.52 162.985 A 1.09 1.09 0 0 0 325.113 162.592 Q 325.456 162.147 325.456 161.29 A 3.365 3.365 0 0 0 325.424 160.81 Q 325.389 160.566 325.315 160.368 A 1.389 1.389 0 0 0 325.113 160 A 1.109 1.109 0 0 0 324.423 159.588 A 1.701 1.701 0 0 0 324.099 159.559 Q 323.437 159.559 323.1 159.994 A 1.394 1.394 0 0 0 322.883 160.412 Q 322.819 160.605 322.789 160.841 A 3.564 3.564 0 0 0 322.762 161.29 Z M 308.288 159.559 A 1.895 1.895 0 0 0 307.921 159.592 Q 307.712 159.633 307.553 159.726 A 0.897 0.897 0 0 0 307.292 159.955 Q 307.025 160.303 306.992 161.07 A 5.196 5.196 0 0 0 306.988 161.29 Q 306.988 162.228 307.301 162.632 A 0.978 0.978 0 0 0 307.797 162.967 Q 308.018 163.036 308.304 163.036 A 1.344 1.344 0 0 0 308.686 162.985 A 0.97 0.97 0 0 0 309.23 162.583 Q 309.448 162.26 309.51 161.734 A 3.864 3.864 0 0 0 309.535 161.281 A 3.984 3.984 0 0 0 309.511 160.827 Q 309.449 160.292 309.23 159.986 A 0.983 0.983 0 0 0 308.604 159.589 A 1.56 1.56 0 0 0 308.288 159.559 Z" id="bottom_labelLayer" stroke="#000000" fill="#000000" style="stroke:#000000;fill:#000000" vector-effect="non-scaling-stroke"/></g></svg>